<svg version="1.1" id="Layer_1" xmlns="http://www.w3.org/2000/svg" xmlns:xlink="http://www.w3.org/1999/xlink" x="0px" y="0px"
	 width="100%" viewBox="0 0 500 500" enable-background="new 0 0 500 500" xml:space="preserve">
<path fill="#000000" opacity="1.000000" stroke="none" 
	d="
M330.000000,501.000000 
	C221.333359,501.000000 113.166695,500.979218 5.000180,501.095398 
	C1.576353,501.099060 0.903033,500.423889 0.905298,497.000031 
	C1.013776,333.000122 1.013757,169.000153 0.905338,5.000259 
	C0.903075,1.576985 1.575757,0.903020 4.999864,0.905285 
	C168.999756,1.013775 332.999725,1.013760 496.999634,0.905354 
	C500.422638,0.903092 501.096985,1.575407 501.094727,4.999744 
	C500.986206,168.999634 500.986237,332.999603 501.094604,496.999512 
	C501.096893,500.422272 500.426117,501.105713 497.000183,501.097229 
	C441.500366,500.959808 386.000153,501.000000 330.000000,501.000000 
z"/>
<path fill="#FBFBFC" opacity="1.000000" stroke="none" 
	d="
M280.213135,239.399368 
	C276.009583,232.187622 270.567413,227.731857 262.100128,227.906097 
	C254.275299,228.067123 248.458405,232.944138 246.897263,240.890564 
	C246.821182,241.277863 246.434509,241.604156 246.117294,242.069000 
	C243.494736,234.186768 245.060730,225.897995 251.075089,219.655838 
	C260.622406,209.746918 274.164764,208.033157 286.524506,214.060165 
	C301.281128,221.255966 307.588104,233.898987 307.966949,249.913559 
	C308.402191,268.310791 299.676178,281.036957 284.247314,290.395721 
	C267.506653,300.550201 241.580307,297.560120 226.235596,285.906097 
	C214.188095,276.756256 206.181763,265.205811 201.491272,251.039398 
	C198.209290,241.127045 197.535950,230.808228 199.277054,220.798065 
	C201.702164,206.855408 207.759415,194.293518 217.109024,183.314301 
	C224.922791,174.138641 234.558380,167.302078 244.679718,161.333130 
	C252.182938,156.908203 260.821320,154.477966 268.574615,150.247910 
	C273.439728,147.593613 278.136169,144.861359 282.369537,141.237396 
	C286.274811,137.894302 290.665009,140.681168 294.558685,141.435287 
	C301.669525,142.812531 307.456635,140.504990 313.409973,137.262543 
	C321.643036,132.778473 325.809540,125.855858 327.241638,116.831825 
	C327.485809,115.293167 328.937469,114.109795 330.917175,114.031601 
	C345.688110,113.448166 358.847565,118.857063 367.752533,132.330612 
	C373.451294,140.953049 374.822296,150.591354 374.854767,160.471863 
	C375.010773,207.955353 375.334717,255.443314 374.832184,302.921539 
	C374.628143,322.200714 364.178375,337.564209 344.858459,343.512451 
	C343.480438,343.936737 341.923248,343.876617 340.449249,343.877594 
	C287.130737,343.913055 233.812012,343.858582 180.494003,344.031189 
	C173.333054,344.054382 166.570755,343.318604 160.130722,339.403259 
	C159.215271,337.823608 160.515015,337.118713 160.894043,335.826172 
	C161.978149,333.170624 163.617264,331.296326 165.431000,329.147827 
	C165.735046,328.703400 165.855499,328.526947 166.166412,328.097778 
	C166.490845,327.684753 166.624817,327.524414 167.189484,326.915680 
	C167.773590,326.327911 167.927032,326.188538 168.576141,325.669189 
	C169.244919,325.170410 169.418045,325.051636 169.849442,324.750427 
	C170.982590,323.952698 171.761154,323.211914 172.936554,322.465576 
	C174.606354,321.830658 176.130447,321.750031 177.670807,320.739777 
	C178.176575,320.590118 178.390488,320.575165 178.856323,320.760132 
	C180.858551,321.869476 181.568268,323.590637 181.912292,325.285431 
	C182.446579,327.917389 184.452682,327.788452 186.284805,328.043671 
	C188.452530,328.345612 188.895630,326.097565 188.862579,325.173462 
	C188.766083,322.474701 189.982010,322.270477 192.220642,321.753784 
	C194.583191,321.208496 197.657684,319.925018 196.911255,316.501007 
	C196.312744,313.755493 193.651657,313.784119 191.398712,313.980194 
	C187.323654,314.334869 185.674683,311.394928 184.007385,308.619995 
	C182.346375,305.855560 185.018311,304.598175 186.460739,303.210663 
	C188.689514,301.066742 189.153687,298.937561 186.915771,296.793488 
	C184.520355,294.498535 182.865906,296.568268 181.253738,298.197815 
	C179.643570,299.825317 177.900742,302.346313 175.490768,300.615326 
	C173.127457,298.917877 170.030060,297.061737 171.910553,292.798065 
	C172.908615,290.535156 171.143051,288.419922 168.809204,288.101898 
	C167.041977,287.861053 164.871277,288.439667 164.944519,291.222015 
	C164.991913,293.022705 164.028824,293.976654 162.190247,293.968689 
	C159.893082,293.958740 157.561188,293.947937 157.004288,296.922699 
	C156.371933,300.300537 158.922913,301.437622 161.215179,302.733429 
	C161.904114,303.122925 162.586731,303.523590 163.329285,304.279480 
	C163.039932,305.003571 162.605804,305.267761 162.260468,305.632660 
	C162.522171,305.500183 162.760956,305.332825 163.230530,304.949799 
	C169.246170,309.321625 168.971054,309.425110 165.029221,314.568207 
	C161.383560,319.324951 156.770309,323.067841 152.929916,327.563049 
	C150.753922,330.110107 148.943665,329.754822 147.097626,327.496033 
	C142.295166,321.619812 139.127258,314.982056 139.105057,307.293976 
	C139.007065,273.354187 139.180801,239.412872 138.908157,205.474899 
	C138.859756,199.450043 143.827042,200.361053 146.494537,199.325272 
	C151.221146,197.489929 156.453156,196.986633 160.289810,192.208084 
	C162.079941,196.969391 158.631180,200.893158 160.889938,204.844238 
	C162.375793,207.443375 164.132812,208.569778 166.822830,207.933502 
	C168.794067,207.467239 170.202530,206.393250 169.084549,203.792343 
	C167.090729,199.153854 167.659180,194.606049 170.582794,190.129059 
	C172.503662,192.143387 173.366867,190.783188 174.468048,189.378464 
	C177.102112,186.018265 180.021423,182.885361 182.588074,179.470184 
	C183.640045,178.070435 185.156631,176.806595 184.566833,174.380768 
	C183.990234,171.636765 185.593353,170.314072 187.406982,168.770203 
	C187.842987,168.455276 188.019348,168.335678 188.714111,167.865265 
	C189.396912,167.389252 189.561340,167.264084 190.199097,166.734756 
	C190.830734,166.193207 190.989029,166.055847 191.392883,165.717590 
	C191.808395,165.387772 191.978317,165.258835 192.408005,164.940628 
	C194.173355,163.826523 195.181351,162.374008 196.738373,161.042587 
	C200.658463,158.510406 204.525650,156.575546 207.926254,153.750290 
	C214.219406,148.521866 216.217438,141.456467 212.177658,136.680908 
	C207.405975,131.040161 198.878220,131.092010 192.793701,136.605789 
	C187.524857,141.380371 183.602188,147.217987 180.134552,153.250259 
	C178.069580,156.842468 175.201080,158.534180 171.763412,159.987564 
	C166.134140,162.367584 160.263809,164.250076 156.129547,169.280991 
	C152.952637,173.146927 148.071365,173.887512 143.544937,174.680862 
	C141.502731,175.038803 138.980408,173.942490 139.061874,170.790863 
	C139.324860,160.615372 137.693420,150.247711 141.137436,140.376053 
	C143.162216,134.572403 147.036758,129.659927 151.336868,125.302620 
	C160.995514,115.515480 173.198090,113.813286 186.335968,113.884583 
	C201.388321,113.966278 216.499115,113.526131 231.517548,113.572472 
	C247.388000,113.621437 263.319580,113.563156 279.217407,113.980309 
	C282.699951,114.071693 284.705048,114.480293 282.986694,118.572975 
	C281.690857,121.659378 281.791290,124.980087 281.987640,128.238342 
	C282.223633,132.154007 279.029663,134.044098 276.701385,135.460693 
	C270.696259,139.114410 264.048767,141.691101 257.852570,145.056442 
	C244.159332,152.493637 229.823914,158.782669 217.528580,168.709839 
	C211.760117,173.367233 205.503677,177.481216 200.559372,183.029495 
	C191.412064,193.294189 182.926727,204.159149 179.677139,217.865143 
	C176.567215,230.981979 175.538239,243.991165 178.505844,257.706116 
	C182.251450,275.016785 191.228287,288.646759 203.790329,299.958130 
	C211.691223,307.072418 221.526733,311.693054 231.890503,315.120453 
	C243.310654,318.897217 254.928787,318.486359 266.454468,317.779846 
	C275.552124,317.222229 284.087524,313.359344 292.270508,309.259064 
	C302.447052,304.159912 311.075012,297.038605 318.882202,288.787445 
	C326.883850,280.330811 332.638916,270.474670 338.147491,260.322388 
	C341.998962,253.224091 343.391388,245.300934 346.880402,238.094406 
	C349.653442,232.366745 350.955444,225.998474 355.987976,221.404373 
	C359.325897,218.357300 358.348694,213.971329 357.602875,210.212448 
	C357.081055,207.582657 351.544830,206.906128 349.519775,209.247314 
	C347.581696,211.487900 345.066711,213.884247 345.086243,216.998306 
	C345.137024,225.103867 341.259674,231.888489 338.412415,239.040237 
	C334.070862,249.945297 329.161377,260.562256 323.090759,270.643188 
	C322.113220,272.266541 320.724518,273.318359 319.351685,274.883484 
	C317.948669,275.188660 317.606720,274.566071 317.760895,273.269958 
	C318.234222,268.001312 321.841217,264.266296 322.431000,259.333099 
	C323.598633,249.566269 324.771271,239.958603 323.282135,230.021347 
	C322.454773,224.500275 321.683044,219.259277 319.254211,214.161728 
	C318.290283,212.138733 318.737518,209.354202 319.944366,206.989136 
	C320.732544,205.444534 321.088501,203.673355 321.589172,201.989151 
	C323.229950,196.469971 321.119995,192.909866 315.259430,193.085693 
	C306.520996,193.347839 301.174377,187.192719 294.956512,183.013657 
	C292.528839,181.381989 292.427643,176.690689 290.354004,173.760666 
	C286.258301,167.973526 282.572632,167.446045 276.962433,172.191513 
	C274.666107,174.133881 272.192322,174.811478 269.111786,175.105377 
	C256.114502,176.345276 245.287933,181.706467 236.835037,192.132706 
	C232.467529,197.519867 228.138123,202.638184 225.837006,209.330688 
	C223.173080,217.078369 221.924561,224.708191 222.674393,233.072708 
	C223.540604,242.735641 227.075424,250.948181 233.153290,257.933777 
	C236.308395,261.560089 239.683578,265.754791 244.888336,266.936646 
	C246.297760,267.256683 245.633911,269.262634 247.578613,269.081665 
	C250.912338,273.076569 255.370346,272.155151 259.707611,272.701965 
	C264.600128,272.658417 268.807495,271.535706 272.686432,269.058899 
	C277.304626,266.110016 280.246246,262.335938 279.766449,256.237366 
	C279.995300,255.496857 280.037506,255.045700 280.152832,254.261978 
	C280.335999,253.766068 280.446045,253.602737 280.745605,253.212708 
	C280.983673,252.532669 281.032227,252.079330 281.149414,251.290131 
	C281.707733,247.150757 281.923706,243.365753 280.213135,239.399368 
z"/>
<path fill="#FAF9FB" opacity="1.000000" stroke="none" 
	d="
M288.992432,377.682373 
	C285.688385,378.894836 284.433899,381.011047 284.895752,384.507935 
	C285.197845,386.795349 285.128693,389.178741 284.869171,391.478882 
	C284.654388,393.382782 284.153320,395.199921 281.340118,395.048065 
	C278.659088,394.903412 277.919891,393.659821 277.979034,391.271851 
	C278.057251,388.113678 278.004547,384.951935 277.987152,381.791870 
	C277.979431,380.391418 278.243469,378.245972 276.361908,378.490021 
	C274.631866,378.714386 272.162445,378.741730 271.889282,381.961487 
	C271.604156,385.321991 273.452271,388.573883 272.060822,391.920471 
	C271.583923,393.067474 272.832642,395.105377 270.141449,395.005127 
	C268.227173,394.933838 266.814331,394.837860 265.804535,392.652039 
	C264.964294,390.833252 265.161591,389.148590 265.041534,387.387604 
	C264.780151,383.554718 266.069000,379.412262 262.745392,376.206085 
	C262.430145,375.902008 261.880859,375.512726 262.494171,375.091888 
	C266.420074,372.397949 264.737396,366.572113 268.956360,363.896332 
	C272.388184,361.719818 275.360748,360.070892 278.141235,364.584045 
	C278.914490,365.839142 279.872314,365.770996 280.864014,364.698578 
	C281.648682,363.850037 282.419861,362.588623 283.381622,362.385742 
	C285.525360,361.933594 288.210083,360.863098 289.654907,363.457275 
	C290.946625,365.776550 289.452332,367.725952 287.450378,368.780426 
	C285.078430,370.029755 283.695557,370.830597 287.049377,372.625183 
	C288.820740,373.572998 289.274963,375.400726 288.992432,377.682373 
z"/>
<path fill="#F3F1F5" opacity="1.000000" stroke="none" 
	d="
M358.063293,391.501923 
	C358.059387,388.399567 358.038452,385.738220 358.067627,383.077484 
	C358.084198,381.565796 358.185120,379.306183 356.605988,379.337524 
	C354.533020,379.378662 355.000427,381.709930 354.993591,383.297607 
	C354.981415,386.123840 354.867096,388.954132 354.982727,391.775055 
	C355.083984,394.245392 353.811462,394.923431 351.642944,394.970947 
	C349.612854,395.015411 347.404816,395.109436 347.313080,392.439240 
	C347.119659,386.809723 346.981842,381.152191 347.356354,375.541901 
	C347.511505,373.217590 349.383209,371.095154 352.233704,372.102539 
	C355.588287,373.288055 359.684937,369.994995 362.548615,373.905273 
	C362.650055,374.043823 363.675598,373.559143 364.239136,373.297546 
	C370.372620,370.450317 375.846771,373.763977 375.915619,380.400269 
	C375.951843,383.892578 375.641937,387.414978 376.005463,390.869415 
	C376.328674,393.940796 374.384674,395.558960 372.343597,395.675079 
	C369.832825,395.817902 368.034302,393.821167 368.091003,390.884125 
	C368.126312,389.055634 368.203583,387.222382 368.113007,385.398651 
	C368.024994,383.626373 368.609619,381.752197 367.509033,380.105774 
	C365.472443,379.961914 365.972260,381.467804 365.950775,382.492950 
	C365.888092,385.485413 366.031250,388.485504 365.879852,391.471741 
	C365.764648,393.744202 364.265717,395.747040 362.199951,395.654938 
	C360.536743,395.580811 357.710022,395.073425 358.063293,391.501923 
z"/>
<path fill="#F7F6F8" opacity="1.000000" stroke="none" 
	d="
M344.134399,394.244507 
	C340.695526,394.698669 337.555054,394.761536 334.422058,394.948975 
	C330.126404,395.205963 327.856018,392.892853 327.082001,389.007568 
	C326.160583,384.382263 329.609894,382.644653 332.940216,381.135162 
	C334.055878,380.629486 335.526215,380.906342 336.932190,380.819489 
	C335.777679,378.417572 333.869873,378.656097 332.195038,379.375061 
	C331.208344,379.798615 329.842590,380.309631 329.523224,379.682892 
	C327.566864,375.843628 326.041626,379.660767 324.388672,379.658417 
	C319.352448,379.651215 319.863861,382.792664 319.936340,385.990753 
	C319.985260,388.150116 319.966187,390.311676 319.942261,392.471863 
	C319.920532,394.437500 318.634369,394.901581 316.965576,394.952911 
	C315.433441,395.000092 313.538727,395.134979 313.242615,393.325012 
	C312.164917,386.738342 313.005646,380.108398 313.314484,373.501740 
	C313.337738,373.004303 314.809906,372.014038 315.106842,372.175537 
	C318.590363,374.069855 322.770538,370.215973 326.027679,373.557587 
	C326.712006,374.259644 327.333252,373.831116 328.159515,373.431030 
	C336.779205,369.257141 344.084259,373.530365 343.948364,382.781555 
	C343.893494,386.518158 346.231842,390.126129 344.134399,394.244507 
z"/>
<path fill="#F8F7F9" opacity="1.000000" stroke="none" 
	d="
M293.648926,393.710144 
	C289.681122,389.330780 286.640106,384.938477 289.059418,378.391541 
	C289.064545,377.992798 288.983643,378.081451 288.942261,378.129211 
	C292.867340,372.857880 300.656555,370.202026 306.910248,372.039978 
	C309.234924,372.723175 309.872559,374.974121 309.822571,376.673218 
	C309.630585,383.200134 310.490356,389.703552 309.112671,396.286865 
	C307.711761,402.981201 298.088531,406.019318 293.271637,402.781525 
	C291.041992,401.282837 288.291473,400.522797 288.936401,396.862640 
	C289.288330,394.865326 290.112183,393.900970 292.530884,394.041077 
	C294.854858,394.788788 296.810364,395.364655 298.863037,395.563324 
	C297.011566,395.319641 295.204407,394.924561 293.648926,393.710144 
z"/>
<path fill="#F9F8FB" opacity="1.000000" stroke="none" 
	d="
M223.787064,372.027008 
	C227.929749,374.143066 226.459076,378.973572 229.098740,381.694275 
	C231.218185,380.299286 230.716400,378.157532 231.106400,376.235443 
	C231.665253,373.480927 233.064377,371.097809 236.483032,372.074524 
	C239.451370,372.922607 238.569931,375.123444 238.069046,377.352692 
	C236.940338,382.376038 235.601105,387.297333 233.490982,392.015350 
	C232.586792,394.037079 231.520569,395.122986 229.084015,395.023804 
	C226.608948,394.923035 226.451141,393.490723 225.773224,391.653503 
	C225.077118,389.766998 225.025650,387.457245 223.048691,385.753815 
	C221.464294,387.141968 221.227386,389.128448 221.051224,390.843597 
	C220.807480,393.216827 219.584610,394.424072 217.530472,394.918274 
	C215.363083,395.439697 213.856598,393.990021 213.205185,392.326996 
	C211.038620,386.795959 209.062622,381.182190 207.273621,375.517975 
	C206.894424,374.317352 207.515137,372.433929 209.077774,372.124634 
	C210.775208,371.788574 212.905121,371.485535 213.910095,373.571747 
	C215.206696,376.263336 216.282822,379.061096 217.395645,381.676208 
	C220.260559,378.950500 216.694244,372.434326 223.787064,372.027008 
z"/>
<path fill="#F5F4F7" opacity="1.000000" stroke="none" 
	d="
M167.718277,363.503479 
	C168.318237,368.928528 169.814850,372.869110 175.877792,373.491302 
	C178.475204,373.757874 179.496674,376.022125 179.015106,378.694305 
	C178.384827,382.191589 180.369873,385.522949 179.849045,388.918427 
	C179.492813,391.241028 180.759445,395.139587 176.201096,394.917603 
	C172.417496,394.733307 172.224243,391.807159 172.023666,388.911530 
	C171.894501,387.046875 172.550995,385.400757 172.942886,383.658630 
	C173.402466,381.615753 172.395325,379.613831 170.494446,379.481934 
	C168.730286,379.359528 168.942505,381.516907 168.943390,382.957794 
	C168.945160,385.783417 169.140213,388.628906 168.864380,391.427612 
	C168.684601,393.251740 168.276840,395.274017 165.412216,395.012665 
	C162.898621,394.783356 161.155930,393.727753 161.115051,391.233337 
	C160.976227,382.758759 160.753143,374.263916 161.208374,365.811615 
	C161.399597,362.261078 163.998398,360.716675 167.718277,363.503479 
z"/>
<path fill="#F7F6F8" opacity="1.000000" stroke="none" 
	d="
M202.680084,375.229004 
	C208.331451,382.356445 209.005966,385.771576 201.844055,392.559235 
	C197.539551,396.638794 189.728699,395.620575 185.163147,390.605072 
	C182.354691,387.519806 182.284210,379.864044 185.033081,376.476501 
	C188.393250,372.335632 195.669800,370.652100 199.588669,373.117828 
	C200.537186,373.714600 201.463760,374.346283 202.680084,375.229004 
z"/>
<path fill="#FBFAFC" opacity="1.000000" stroke="none" 
	d="
M239.994720,383.064941 
	C240.123459,375.533875 243.780640,372.003754 251.000351,372.000610 
	C257.610443,371.997742 261.443359,376.169617 262.136932,382.589386 
	C262.759949,388.356262 260.098022,392.383881 255.737946,394.381531 
	C251.939438,396.121857 247.174408,395.741302 243.316055,392.744354 
	C240.211075,390.332581 239.742569,387.072784 239.994720,383.064941 
z"/>
<path fill="#F5F4F7" opacity="1.000000" stroke="none" 
	d="
M158.008224,390.846741 
	C154.125748,395.424713 146.992752,396.634277 141.975494,393.952972 
	C138.843658,392.279266 139.641632,388.513428 143.977859,385.640900 
	C140.698395,382.356781 139.131439,378.718048 142.808670,374.770538 
	C145.857239,371.497925 153.380783,370.793427 156.881699,373.506165 
	C157.987778,374.363190 159.742462,375.131989 158.292618,377.451721 
	C157.201614,379.197266 156.321198,380.680817 154.279175,379.572021 
	C152.608780,378.664978 151.097122,379.163330 148.881195,379.133209 
	C153.109863,382.376892 161.276520,382.085388 158.008224,390.846741 
z"/>
<path fill="#F3E4F9" opacity="1.000000" stroke="none" 
	d="
M196.974274,160.625015 
	C196.679047,163.539108 194.963547,164.997070 192.292114,165.945068 
	C188.477280,164.497375 184.767715,166.619156 181.021515,165.015610 
	C180.319611,164.186234 180.199982,163.504364 180.401855,162.435989 
	C183.456879,159.455780 185.990326,156.465851 188.396500,152.934784 
	C190.170868,152.125641 190.163589,150.469772 191.025238,149.383102 
	C190.369553,149.710220 190.355087,150.408997 189.918823,151.225250 
	C189.667252,151.705200 189.540298,151.880493 189.144684,152.230865 
	C188.325974,152.714600 187.754272,152.973740 186.857727,153.249084 
	C186.363129,153.368759 186.162048,153.400742 185.438141,153.178116 
	C187.829971,147.193359 191.514297,142.072739 196.543228,137.975571 
	C198.202911,136.623413 199.844147,136.378281 201.333344,137.951630 
	C202.957947,139.668060 201.619858,140.977173 200.352798,142.106216 
	C198.969360,143.338959 197.965179,144.796753 197.421814,147.103821 
	C195.868744,149.103302 194.418884,150.646225 194.329132,153.287384 
	C194.488266,153.817459 194.545273,154.034348 194.630005,154.591492 
	C194.466537,157.002350 192.780640,158.179398 191.637024,159.823441 
	C192.862701,159.485825 193.627762,158.434860 195.458832,158.764374 
	C196.351517,159.494354 196.633423,159.925140 196.974274,160.625015 
z"/>
<path fill="#E0B5FC" opacity="1.000000" stroke="none" 
	d="
M279.610535,256.074585 
	C281.943878,263.070953 278.134705,268.951080 269.107178,272.349976 
	C266.500977,273.331238 263.770844,274.125580 260.483704,273.932495 
	C258.715698,273.301361 257.991699,272.359161 258.747314,270.481964 
	C262.245209,268.501343 265.876099,267.994659 269.226074,266.210480 
	C273.795990,263.776581 276.623077,260.233612 279.610535,256.074585 
z"/>
<path fill="#FAF9FB" opacity="1.000000" stroke="none" 
	d="
M143.675919,183.348129 
	C144.441956,183.150436 144.894852,183.100464 145.683502,183.124466 
	C146.493317,183.493835 147.004913,183.528854 147.767487,183.287292 
	C149.995789,182.115936 152.131210,181.268402 153.954559,179.979416 
	C155.811539,178.666656 157.739868,179.265625 158.567368,180.449570 
	C159.473587,181.746140 159.625229,183.933350 158.036087,185.426575 
	C154.005096,189.214218 149.308380,191.031387 143.380249,190.019592 
	C143.755875,187.770035 143.063446,185.607010 143.675919,183.348129 
z"/>
<path fill="#E7CDF3" opacity="1.000000" stroke="none" 
	d="
M305.281921,104.642517 
	C303.236267,105.837776 301.466003,106.829071 299.371887,107.948540 
	C297.617401,106.650589 299.172913,105.596970 299.602112,104.272026 
	C298.156799,105.164413 296.818817,105.941383 298.850464,107.816849 
	C297.485626,108.860123 296.083679,111.485008 294.023468,109.075806 
	C292.352417,107.121704 293.539917,105.194885 294.952667,103.601532 
	C300.028107,97.877174 310.820007,95.844368 317.753540,99.636215 
	C316.067841,101.806854 313.738831,101.787773 311.522522,101.962242 
	C309.713654,102.104637 308.009949,102.386322 306.314270,103.841095 
	C306.072296,104.130859 306.046509,104.050003 306.088470,104.056290 
	C305.939392,104.187912 305.748352,104.313232 305.281921,104.642517 
z"/>
<path fill="#F3E4F9" opacity="1.000000" stroke="none" 
	d="
M179.676620,177.453583 
	C175.612335,177.851532 172.810806,180.289642 169.299484,180.075455 
	C166.921524,179.930405 164.519943,179.611267 163.344238,177.623306 
	C162.109329,175.535233 164.001923,173.799881 165.620529,172.044312 
	C166.865280,172.378723 167.203201,173.228363 167.431641,174.498230 
	C167.146362,176.400726 168.043930,176.668304 169.328018,176.673859 
	C170.850143,176.680420 171.668228,176.016876 171.823181,174.145752 
	C172.060410,173.107529 172.349289,172.466415 173.059204,171.652039 
	C174.589569,170.682312 175.736893,169.801147 177.116669,168.593506 
	C179.555450,167.689468 181.410843,168.083694 182.433273,170.126846 
	C183.858368,172.974655 182.179291,175.065521 179.676620,177.453583 
z"/>
<path fill="#F3E4F9" opacity="1.000000" stroke="none" 
	d="
M184.561340,173.877686 
	C188.737183,175.266922 185.781570,177.185120 185.002426,178.302307 
	C183.020996,181.143402 180.325745,183.501877 178.456512,186.401794 
	C176.545624,189.366379 173.381058,191.152161 172.118027,194.586975 
	C169.990463,193.082016 172.580856,191.563934 171.172348,190.149994 
	C173.931396,186.215057 178.000290,183.271271 179.324890,178.182877 
	C179.009384,177.883011 178.984161,177.964020 178.954437,177.994263 
	C180.722641,176.650406 181.834366,174.417374 184.561340,173.877686 
z"/>
<path fill="#EBE0F4" opacity="1.000000" stroke="none" 
	d="
M173.156921,322.775940 
	C172.238693,323.986084 171.414673,324.872650 170.316544,325.892700 
	C169.869415,325.895538 169.696381,325.764923 169.266022,325.833130 
	C169.008682,326.031952 168.993927,326.002533 169.010132,326.005035 
	C168.778763,326.211273 168.545334,326.430115 168.167664,326.844482 
	C168.009262,327.024902 167.998688,326.998779 168.011841,327.003876 
	C167.777802,327.212219 167.544785,327.430603 167.167938,327.844299 
	C167.009933,328.024475 167.011154,327.995178 167.020996,328.007019 
	C165.368774,330.692505 161.099411,331.470398 161.748199,335.818268 
	C162.071915,337.266296 161.138077,337.865387 160.139343,338.807434 
	C155.527145,338.062012 155.272034,335.566132 158.027924,332.612823 
	C162.295837,328.039093 166.654877,323.522003 171.295822,319.336334 
	C173.767822,317.106842 176.788773,316.678955 179.056015,320.569489 
	C178.930298,320.973267 178.752350,320.986420 178.306763,321.003723 
	C176.533005,321.787292 174.352280,320.330597 173.156921,322.775940 
z"/>
<path fill="#F3E4F9" opacity="1.000000" stroke="none" 
	d="
M197.940521,147.097290 
	C199.157410,146.049133 200.446259,144.988937 201.661224,143.849930 
	C202.966324,142.626419 204.274704,140.690948 206.102646,142.709900 
	C207.660965,144.431030 207.687912,146.643463 205.973572,148.473648 
	C203.939178,150.645523 201.795532,152.715057 199.153000,154.721100 
	C198.466751,154.227966 198.382965,153.833389 198.463135,153.179779 
	C198.850418,152.361801 198.652786,153.262619 198.701828,152.599182 
	C198.736771,152.126434 198.584106,152.106537 198.207520,152.756226 
	C197.091537,153.949722 196.066177,154.721222 194.309784,154.237671 
	C194.031326,154.033051 193.988480,153.985535 193.967224,153.961639 
	C193.597809,150.913254 195.770798,149.294922 197.815903,147.216766 
	C198.073715,146.972031 197.979950,147.050568 197.940521,147.097290 
z"/>
<path fill="#E7CDF3" opacity="1.000000" stroke="none" 
	d="
M173.706665,312.193481 
	C171.947708,309.418091 171.131882,307.015320 174.163467,304.938446 
	C175.792480,303.822418 177.867996,303.368927 179.232925,304.266815 
	C180.402939,305.036499 181.202133,307.140350 180.567764,308.857391 
	C179.914062,310.626740 180.062012,313.351776 176.743607,312.804230 
	C175.854935,312.657562 174.836685,313.260681 173.706665,312.193481 
z"/>
<path fill="#F3E4F9" opacity="1.000000" stroke="none" 
	d="
M258.553986,270.094604 
	C259.246582,271.223175 259.510468,272.279999 259.922729,273.632996 
	C255.821182,274.280426 251.833801,273.344391 248.020081,271.507477 
	C247.001068,271.016632 246.126373,270.573883 247.795181,269.379822 
	C251.449356,268.282806 254.657089,270.686218 258.553986,270.094604 
z"/>
<path fill="#F9F8FB" opacity="1.000000" stroke="none" 
	d="
M174.275574,171.682617 
	C173.739227,172.407654 173.396423,172.849777 173.033691,173.585907 
	C171.594391,176.304749 170.016800,178.251221 167.000122,175.441132 
	C166.670029,174.196030 166.346558,173.376511 165.989548,172.226532 
	C165.900909,170.305740 166.559143,169.271133 168.553970,168.986542 
	C169.080933,168.845245 169.260468,168.724518 169.765060,168.582123 
	C170.969238,168.615021 171.817169,168.842316 172.995361,169.126114 
	C173.516937,169.334335 173.715973,169.443130 174.142944,169.806641 
	C174.534500,170.497879 174.560623,170.944473 174.275574,171.682617 
z"/>
<path fill="#DEBBF0" opacity="1.000000" stroke="none" 
	d="
M302.471497,118.305695 
	C305.705627,113.993568 310.912811,113.259872 315.804199,112.128571 
	C318.850281,111.424065 320.141754,114.547173 318.941315,119.569107 
	C318.384583,120.052277 317.950165,119.938080 317.395294,119.272453 
	C316.509216,115.895714 314.740845,115.265160 311.802429,116.172264 
	C308.899689,117.068367 306.252716,118.920746 302.471497,118.305695 
z"/>
<path fill="#EBE0F4" opacity="1.000000" stroke="none" 
	d="
M143.617661,183.116089 
	C144.206161,185.289352 147.260376,187.636383 143.229462,189.607971 
	C140.445862,190.792175 139.505661,188.892914 139.144073,187.122803 
	C138.512817,184.032639 141.409836,183.949600 143.617661,183.116089 
z"/>
<path fill="#E7CDF3" opacity="1.000000" stroke="none" 
	d="
M308.492920,129.689682 
	C304.227173,134.674271 298.609222,135.689484 293.921936,132.434875 
	C294.056366,131.879837 294.245575,131.717178 294.793335,131.448395 
	C299.736237,132.738602 303.580231,129.552658 308.492920,129.689682 
z"/>
<path fill="#F3E4F9" opacity="1.000000" stroke="none" 
	d="
M306.471161,104.049500 
	C306.600189,101.016098 309.314453,101.412529 311.352539,101.086205 
	C313.245667,100.783073 315.221497,100.992851 317.417114,100.074036 
	C317.962738,100.762703 320.065277,101.763542 317.303589,102.074043 
	C313.799042,102.468071 310.345551,103.315964 306.471161,104.049500 
z"/>
<path fill="#DEBBF0" opacity="1.000000" stroke="none" 
	d="
M295.202057,131.758743 
	C294.752686,132.019028 294.575623,132.025009 294.132874,132.036743 
	C291.220306,127.461349 294.755524,124.908630 297.786560,122.230476 
	C298.691711,125.894035 296.289246,128.441483 295.202057,131.758743 
z"/>
<path fill="#F3E4F9" opacity="1.000000" stroke="none" 
	d="
M173.526657,165.322021 
	C174.280228,162.162506 177.284088,161.217148 179.876328,159.301697 
	C180.787949,160.128052 180.818420,160.838638 180.412354,161.899414 
	C178.717209,164.273270 176.836823,165.723434 173.526657,165.322021 
z"/>
<path fill="#E7CDF3" opacity="1.000000" stroke="none" 
	d="
M316.461243,121.804436 
	C315.800446,125.778961 312.797791,127.901489 309.438385,130.056000 
	C309.090424,130.096069 309.012115,130.004532 308.973877,129.957977 
	C309.601959,125.773857 312.868042,123.775497 316.461243,121.804436 
z"/>
<path fill="#E0B5FC" opacity="1.000000" stroke="none" 
	d="
M279.982544,239.520966 
	C283.226410,242.433456 281.772614,246.491104 281.462341,250.644226 
	C280.624756,247.302765 281.647705,243.471786 279.982544,239.520966 
z"/>
<path fill="#EBE0F4" opacity="1.000000" stroke="none" 
	d="
M317.640472,273.057617 
	C318.149109,273.493896 318.336517,274.077576 318.780029,274.840332 
	C319.184784,276.285156 318.513428,277.146088 317.602234,277.873047 
	C317.084869,278.285828 316.764832,279.392273 315.806763,278.347900 
	C315.243561,277.734009 314.571136,277.122375 315.241760,276.317719 
	C316.051819,275.345734 317.107666,274.568146 317.640472,273.057617 
z"/>
<path fill="#F3E4F9" opacity="1.000000" stroke="none" 
	d="
M169.112442,302.970062 
	C167.530197,302.960175 166.277542,302.535461 166.362015,301.308136 
	C166.420090,300.464172 167.619507,299.785645 168.728500,300.017395 
	C170.832520,300.457031 170.030075,301.754822 169.112442,302.970062 
z"/>
<path fill="#F3E4F9" opacity="1.000000" stroke="none" 
	d="
M183.664795,156.151337 
	C182.753372,154.696991 183.467789,153.898819 184.608566,153.041656 
	C184.915314,152.923523 184.976807,152.983490 185.006790,153.014236 
	C185.937820,154.365784 185.942932,155.514847 183.664795,156.151337 
z"/>
<path fill="#F3E4F9" opacity="1.000000" stroke="none" 
	d="
M170.471588,169.080627 
	C169.922745,169.008087 169.718384,169.002457 169.207703,168.981384 
	C169.713699,168.024765 170.526001,167.083542 171.866180,166.299347 
	C172.715118,167.850113 172.122040,168.707840 170.471588,169.080627 
z"/>
<path fill="#E7CDF3" opacity="1.000000" stroke="none" 
	d="
M317.527893,118.820000 
	C318.089264,119.044952 318.265900,119.348610 318.662201,119.802170 
	C319.156586,121.022331 318.028809,121.200783 317.377502,121.972427 
	C317.089630,122.079613 316.880432,121.896797 316.775635,121.805588 
	C316.115112,120.656181 316.223022,119.709312 317.527893,118.820000 
z"/>
<path fill="#F3E4F9" opacity="1.000000" stroke="none" 
	d="
M199.044006,155.045959 
	C198.928253,155.662308 198.787567,156.256180 198.139709,156.701172 
	C197.476089,155.831146 197.665375,155.248108 198.640015,154.914841 
	C198.966766,154.981415 199.019073,155.023499 199.044006,155.045959 
z"/>
<path fill="#EBE0F4" opacity="1.000000" stroke="none" 
	d="
M147.669113,183.084229 
	C147.565903,183.782486 147.046722,184.065948 146.175262,183.391693 
	C146.459808,183.136047 146.900345,183.073639 147.669113,183.084229 
z"/>
<path fill="#DEBBF0" opacity="1.000000" stroke="none" 
	d="
M299.426575,120.927704 
	C299.080872,120.630318 299.252106,120.346497 299.810211,120.239548 
	C300.112518,120.591377 300.027985,120.766335 299.426575,120.927704 
z"/>
<path fill="#F3E4F9" opacity="1.000000" stroke="none" 
	d="
M182.508865,156.820312 
	C182.093201,156.643127 182.261230,156.354980 182.679428,156.001129 
	C182.929581,155.935455 182.981598,155.983551 183.007065,156.008179 
	C183.052551,156.258301 183.072571,156.483826 182.508865,156.820312 
z"/>
<path fill="#F3E4F9" opacity="1.000000" stroke="none" 
	d="
M181.505661,157.822906 
	C181.092224,157.643005 181.259659,157.355148 181.676117,156.999283 
	C181.925156,156.931290 181.983856,156.985641 182.012817,157.013245 
	C182.056702,157.265549 182.071625,157.490250 181.505661,157.822906 
z"/>
<path fill="#F3E4F9" opacity="1.000000" stroke="none" 
	d="
M305.277039,104.902390 
	C305.135590,104.534538 305.356384,104.314743 305.899658,104.124840 
	C305.936127,104.361160 305.741852,104.659729 305.277039,104.902390 
z"/>
<path fill="#F3E4F9" opacity="1.000000" stroke="none" 
	d="
M198.036865,157.039886 
	C197.893219,157.350769 197.725418,157.637253 197.207306,157.674866 
	C197.001282,157.253967 197.145538,157.081909 197.625244,156.940186 
	C197.960693,156.970520 198.012695,157.015457 198.036865,157.039886 
z"/>
<path fill="#DEBBF0" opacity="1.000000" stroke="none" 
	d="
M301.446655,118.916862 
	C301.071136,118.619942 301.243744,118.334015 301.665039,117.978371 
	C301.913696,117.908646 302.105774,118.147423 302.199219,118.268829 
	C302.193390,118.569435 302.094086,118.748642 301.446655,118.916862 
z"/>
<path fill="#DEBBF0" opacity="1.000000" stroke="none" 
	d="
M300.011780,120.010117 
	C300.079865,119.626892 300.247925,119.344826 300.657227,118.984306 
	C300.898499,118.905853 301.044861,119.042847 301.117859,119.111526 
	C301.223175,119.558716 301.094147,119.875877 300.568909,120.226669 
	C300.312012,120.313278 300.111725,120.111290 300.011780,120.010117 
z"/>
<path fill="#F3E4F9" opacity="1.000000" stroke="none" 
	d="
M179.958740,158.956024 
	C180.095337,158.639603 180.261932,158.352921 180.676666,157.998550 
	C180.924789,157.930862 180.987518,157.989349 181.018433,158.019073 
	C181.174469,158.493866 181.039398,158.850204 180.366013,159.086258 
	C180.051514,159.042313 179.988708,158.985779 179.958740,158.956024 
z"/>
<path fill="#DEBBF0" opacity="1.000000" stroke="none" 
	d="
M297.987183,121.981789 
	C298.079346,121.626945 298.248383,121.342079 298.663513,120.985680 
	C298.909637,120.914139 299.049896,121.052139 299.119507,121.121674 
	C299.204956,121.575119 299.054626,121.883125 298.491028,122.157768 
	C298.220001,122.189346 298.064087,122.051773 297.987183,121.981789 
z"/>
<path fill="#F3E4F9" opacity="1.000000" stroke="none" 
	d="
M197.039963,158.042358 
	C196.898636,158.355560 196.734283,158.644531 196.319778,158.998550 
	C196.069611,159.063583 196.019867,159.016998 195.996643,158.992065 
	C195.825607,158.515076 195.957031,158.153778 196.649887,157.920624 
	C196.970123,157.970398 197.016937,158.018127 197.039963,158.042358 
z"/>
<path fill="#F3E4F9" opacity="1.000000" stroke="none" 
	d="
M171.957138,165.953979 
	C172.097473,165.641647 172.264496,165.356293 172.677948,165.000763 
	C172.924408,164.930573 172.980560,164.984970 173.006073,165.014587 
	C173.173309,165.492554 173.041687,165.851349 172.357834,166.082123 
	C172.040802,166.031143 171.983826,165.980972 171.957138,165.953979 
z"/>
<path fill="#E0B5FC" opacity="1.000000" stroke="none" 
	d="
M280.692200,253.037018 
	C280.954315,253.293777 280.843903,253.544388 280.414917,253.833649 
	C279.995544,253.568008 280.070007,253.287552 280.692200,253.037018 
z"/>
<path fill="#000000" opacity="1.000000" stroke="none" 
	d="
M330.755554,146.157898 
	C332.308685,145.585953 334.179382,146.975250 334.872467,145.004425 
	C335.486969,143.257065 333.777893,142.403168 332.758148,141.393829 
	C332.197266,140.838699 331.447937,140.467178 330.763733,140.045059 
	C329.782440,139.439636 328.414368,138.715057 329.168518,137.496979 
	C329.830048,136.428467 331.159363,136.831528 332.206360,137.650558 
	C336.552826,141.050629 341.040466,144.278610 345.272400,147.813828 
	C348.519806,150.526581 351.747467,153.176819 355.492004,155.217484 
	C357.195587,156.145905 358.070496,157.382599 355.716583,159.223755 
	C351.128296,162.812576 351.105835,165.419724 355.497498,168.844498 
	C359.124603,171.673050 358.498688,175.402817 357.607635,178.770523 
	C356.736511,182.063080 353.987274,184.028351 350.280121,184.067673 
	C347.332520,184.098938 344.524536,184.078659 341.729095,182.513382 
	C340.197083,181.655548 338.262665,181.304947 335.921387,181.791458 
	C325.590363,183.938248 314.345856,174.134491 315.011780,163.919754 
	C315.332336,159.003464 318.779327,155.272079 320.942413,151.151474 
	C322.042969,149.055023 323.862732,146.908112 324.490967,144.687820 
	C325.801453,140.056229 327.160950,142.687241 328.605011,144.625763 
	C327.764526,149.138611 323.550964,151.532822 323.020325,156.124390 
	C322.776062,156.635834 322.664001,156.832642 322.342285,157.294296 
	C320.248169,159.404602 318.723724,161.367706 320.192566,164.326874 
	C320.432281,164.423264 320.928284,164.393051 321.151306,164.300125 
	C321.650909,164.031494 321.877777,163.805786 322.172485,163.304565 
	C322.359924,162.918808 322.429810,162.758591 322.590393,162.346161 
	C322.908966,161.369904 323.016113,160.620926 323.209778,159.569824 
	C323.355835,159.063599 323.431030,158.862701 323.656799,158.370850 
	C326.167480,154.255936 329.337524,150.895355 330.755554,146.157898 
z"/>
<path fill="#000000" opacity="1.000000" stroke="none" 
	d="
M316.377441,338.174500 
	C312.504669,333.318817 313.647278,329.421234 319.991730,324.430573 
	C320.243378,324.232635 320.544128,324.088013 320.838287,323.954529 
	C322.750977,323.086487 324.901093,321.558716 323.698914,319.624512 
	C322.511871,317.714691 320.517517,319.938873 319.021210,320.619202 
	C314.519562,322.665894 309.965302,324.658447 305.691437,327.122864 
	C302.867950,328.750885 300.594971,328.214233 299.423523,325.790222 
	C298.191223,323.240417 298.468384,320.415161 301.160248,318.252167 
	C305.834320,314.496429 311.316498,312.340118 316.697693,309.977875 
	C318.515503,309.179901 319.403046,308.310791 320.249420,306.187012 
	C321.957825,301.900024 322.735870,295.540527 328.976959,295.669800 
	C334.394379,295.782074 339.296783,295.418243 344.277130,293.126099 
	C346.358185,292.168335 349.282684,293.358368 350.759186,295.484436 
	C352.146454,297.481995 352.329254,299.682983 351.412323,302.374481 
	C348.570343,310.716827 344.068054,317.461975 336.926086,322.920105 
	C331.293701,327.224457 326.695190,332.881653 321.322693,338.076599 
	C319.600769,338.671570 318.160950,338.455933 316.377441,338.174500 
z"/>
<path fill="#000000" opacity="1.000000" stroke="none" 
	d="
M184.952576,173.629639 
	C183.083008,175.516083 181.270691,177.064865 179.191528,178.319077 
	C178.697388,176.292938 179.984833,175.392624 181.040649,174.483353 
	C182.416946,173.298111 182.266739,171.823990 181.766891,170.526901 
	C181.151794,168.930771 179.721252,168.636230 177.849838,169.560577 
	C177.336319,169.773010 177.120621,169.743500 176.769073,169.421097 
	C176.520401,168.205261 177.041183,167.542847 177.749771,166.647583 
	C178.079575,166.273529 178.217819,166.130768 178.586853,165.801819 
	C179.157913,165.418198 179.514923,165.259079 180.466248,165.138123 
	C184.691360,164.925415 188.344055,162.670685 191.966492,165.551178 
	C191.940460,165.962067 191.992096,165.986343 191.979904,165.960632 
	C191.759796,166.186157 191.543198,166.429657 191.125671,166.816498 
	C190.933456,166.967606 190.995255,166.995544 190.981323,166.964630 
	C190.779282,167.202667 190.562576,167.446182 190.124069,167.814758 
	C189.930878,167.965271 189.994431,167.994492 189.979858,167.962692 
	C189.783020,168.210526 189.559738,168.452316 189.103806,168.813126 
	C187.326202,170.153168 185.638123,171.244110 184.952576,173.629639 
z"/>
<path fill="#F3E4F9" opacity="1.000000" stroke="none" 
	d="
M321.364685,156.923737 
	C322.916779,152.586334 324.535889,148.518906 328.225830,145.288696 
	C328.478516,145.017395 328.385376,145.027130 328.375732,144.981308 
	C329.056641,145.189331 329.720612,145.526047 330.780060,145.804443 
	C331.094452,145.998459 331.012482,146.014267 331.012878,145.972519 
	C331.708862,151.663391 326.912750,154.678070 324.276245,159.103500 
	C323.130280,158.619980 322.708008,157.452866 321.364685,156.923737 
z"/>
<path fill="#000000" opacity="1.000000" stroke="none" 
	d="
M164.974518,137.826080 
	C164.475815,133.318069 168.185822,133.757507 170.238129,133.255859 
	C171.296310,132.997208 174.290253,134.059738 174.005280,136.787445 
	C173.813812,138.620285 173.943863,140.538254 171.205933,141.135696 
	C168.140488,141.804611 166.177780,141.107574 164.974518,137.826080 
z"/>
<path fill="#000000" opacity="1.000000" stroke="none" 
	d="
M159.308289,270.773315 
	C158.550644,270.375793 157.980331,270.292419 157.697128,269.962524 
	C156.912064,269.048096 158.055618,268.770996 158.315338,269.018524 
	C161.124161,271.695435 161.104797,263.005524 164.107376,267.567963 
	C165.067551,269.027008 166.651718,268.605438 167.806305,269.488434 
	C165.072113,270.406769 163.424637,276.625519 159.308289,270.773315 
z"/>
<path fill="#E1C7FA" opacity="1.000000" stroke="none" 
	d="
M162.138138,335.687927 
	C160.840057,336.372498 159.503403,337.813995 158.522202,336.267487 
	C157.802261,335.132721 159.234009,334.214600 160.048920,333.496490 
	C162.124710,331.667358 163.574432,329.103363 166.683624,328.046326 
	C166.655258,331.254852 163.078522,332.420105 162.138138,335.687927 
z"/>
<path fill="#000000" opacity="1.000000" stroke="none" 
	d="
M349.555237,275.679565 
	C352.739868,272.791901 352.836334,277.223816 354.723999,277.128357 
	C352.473450,278.213196 350.480438,280.093597 347.901611,278.070526 
	C347.317902,277.612610 346.782379,277.218964 347.046265,276.621094 
	C347.436157,275.737762 348.437012,275.988586 349.555237,275.679565 
z"/>
<path fill="#EBE0F4" opacity="1.000000" stroke="none" 
	d="
M186.043228,332.365723 
	C185.056519,331.341400 183.619049,330.243652 186.018036,330.041229 
	C187.520660,329.914429 189.104080,328.012207 190.499344,329.790649 
	C191.113281,330.573242 190.248093,331.690216 189.546341,332.353149 
	C188.599426,333.247620 187.440582,333.031006 186.043228,332.365723 
z"/>
<path fill="#E1C7FA" opacity="1.000000" stroke="none" 
	d="
M173.451294,323.065125 
	C171.346359,321.696320 172.773178,320.826111 173.652405,319.949280 
	C175.255478,318.350586 176.277939,319.960541 177.740265,320.865112 
	C177.639420,323.758087 175.411057,322.712311 173.451294,323.065125 
z"/>
<path fill="#000000" opacity="1.000000" stroke="none" 
	d="
M158.185089,244.733459 
	C158.792923,242.152573 159.787369,241.971985 163.852493,243.637192 
	C161.922043,243.673737 161.502655,248.756668 158.185089,244.733459 
z"/>
<path fill="#000000" opacity="1.000000" stroke="none" 
	d="
M242.171082,137.396729 
	C239.800201,138.266418 238.785660,137.325195 239.355286,135.327576 
	C239.578049,134.546326 240.950790,134.093002 241.799789,133.490326 
	C241.553696,134.776260 245.199615,135.395874 242.171082,137.396729 
z"/>
<path fill="#EBE0F4" opacity="1.000000" stroke="none" 
	d="
M196.404083,322.628052 
	C196.125244,325.393433 194.454361,325.051331 192.334305,324.569855 
	C193.155655,322.603485 194.758240,322.653809 196.404083,322.628052 
z"/>
<path fill="#EBE0F4" opacity="1.000000" stroke="none" 
	d="
M321.165955,341.575073 
	C319.708069,341.876862 318.379883,342.527222 317.339050,340.680115 
	C318.968903,340.052856 320.358734,339.027130 321.165955,341.575073 
z"/>
<path fill="#F3E4F9" opacity="1.000000" stroke="none" 
	d="
M163.427704,304.761047 
	C163.265030,305.211700 163.118439,305.713928 162.813065,306.085815 
	C161.869858,307.234619 160.806351,307.062439 159.861725,306.116516 
	C159.571381,305.825745 159.312256,305.038910 159.477814,304.834106 
	C160.459717,303.619476 161.582214,305.103333 163.019897,304.712708 
	C163.386322,304.639893 163.371185,304.753052 163.427704,304.761047 
z"/>
<path fill="#EBE0F4" opacity="1.000000" stroke="none" 
	d="
M316.223572,338.212830 
	C317.413239,337.965973 318.801666,338.006317 320.598999,338.130920 
	C319.547180,339.401642 318.002075,339.229492 316.223572,338.212830 
z"/>
<path fill="#000000" opacity="1.000000" stroke="none" 
	d="
M330.940094,145.619614 
	C330.085815,147.297272 329.685150,145.810089 328.691895,145.240387 
	C329.172607,145.037247 329.979187,145.139008 330.940094,145.619614 
z"/>
<path fill="#F3E4F9" opacity="1.000000" stroke="none" 
	d="
M157.451599,303.533691 
	C157.418045,303.478241 157.485168,303.589142 157.451599,303.533691 
z"/>
<path fill="#F3E4F9" opacity="1.000000" stroke="none" 
	d="
M189.154358,168.874283 
	C189.090668,168.671768 189.269180,168.373535 189.706482,168.003082 
	C189.775726,168.213455 189.586151,168.496002 189.154358,168.874283 
z"/>
<path fill="#F3E4F9" opacity="1.000000" stroke="none" 
	d="
M190.170258,167.869995 
	C190.104401,167.667831 190.277924,167.370392 190.709412,167.003326 
	C190.781464,167.214050 190.595535,167.494370 190.170258,167.869995 
z"/>
<path fill="#E1C7FA" opacity="1.000000" stroke="none" 
	d="
M169.267151,326.037659 
	C169.183624,325.666077 169.355057,325.291748 169.943649,325.855713 
	C169.870178,326.031891 169.697906,326.037628 169.267151,326.037659 
z"/>
<path fill="#F3E4F9" opacity="1.000000" stroke="none" 
	d="
M191.172607,166.871979 
	C191.106018,166.669510 191.278580,166.371414 191.709427,166.004105 
	C191.782394,166.215393 191.597061,166.495865 191.172607,166.871979 
z"/>
<path fill="#EBE0F4" opacity="1.000000" stroke="none" 
	d="
M323.437744,339.536804 
	C323.399567,339.476318 323.475952,339.597260 323.437744,339.536804 
z"/>
<path fill="#E1C7FA" opacity="1.000000" stroke="none" 
	d="
M167.240829,327.925293 
	C167.099457,327.687714 167.286194,327.418396 167.797577,327.112732 
	C167.840561,327.281372 167.656143,327.553741 167.240829,327.925293 
z"/>
<path fill="#E1C7FA" opacity="1.000000" stroke="none" 
	d="
M168.239655,326.924438 
	C168.196686,326.755493 168.384109,326.486084 168.798920,326.112122 
	C168.840912,326.279663 168.655487,326.551788 168.239655,326.924438 
z"/>
<path fill="#000000" opacity="1.000000" stroke="none" 
	d="
M276.173889,372.611511 
	C275.138092,371.504761 273.382690,372.748932 273.102692,371.142883 
	C272.913208,370.056122 273.949219,369.551971 274.746277,369.008331 
	C276.049927,368.119141 277.324799,367.187744 278.899200,366.070160 
	C278.670227,368.728790 278.628845,371.151855 276.173889,372.611511 
z"/>
<path fill="#000000" opacity="1.000000" stroke="none" 
	d="
M302.978943,382.376587 
	C303.014160,384.804657 303.280060,386.999207 300.234497,386.978363 
	C298.418549,386.965912 296.494873,386.566528 296.086273,384.626862 
	C295.705688,382.820099 295.689087,381.086792 298.188934,379.822144 
	C301.281158,378.257843 301.840973,380.266510 302.978943,382.376587 
z"/>
<path fill="#000000" opacity="1.000000" stroke="none" 
	d="
M293.542847,393.554382 
	C296.421631,393.998138 298.847290,396.139496 301.890503,394.895386 
	C299.014252,396.524109 296.156433,396.297119 293.107666,394.430542 
	C293.066986,393.955719 293.199371,393.836731 293.542847,393.554382 
z"/>
<path fill="#000000" opacity="1.000000" stroke="none" 
	d="
M196.635941,379.198059 
	C198.033676,381.131042 200.032990,382.702911 198.493668,385.016083 
	C197.577637,386.392609 196.212021,387.061798 194.325867,387.091949 
	C192.076431,387.127899 190.816513,385.899597 190.129318,384.285553 
	C189.346329,382.446442 190.882751,381.050171 192.301239,380.337555 
	C193.507660,379.731567 194.664566,378.489136 196.635941,379.198059 
z"/>
<path fill="#000000" opacity="1.000000" stroke="none" 
	d="
M253.808853,380.292236 
	C255.590805,382.706177 255.864899,385.147461 253.686493,386.548370 
	C252.057770,387.595825 249.403778,387.804993 247.770218,386.154541 
	C246.299881,384.669006 246.476135,382.499084 247.715683,380.814331 
	C249.278336,378.690369 251.277039,378.041077 253.808853,380.292236 
z"/>
<path fill="#D280FD" opacity="1.000000" stroke="none" 
	d="
M197.020660,157.710251 
	C196.673141,158.130142 196.376160,158.289886 196.026291,158.708374 
	C193.144012,158.787125 192.619476,162.410263 189.641251,162.650024 
	C189.100754,158.829544 193.147308,157.591599 194.014893,154.381042 
	C195.564438,154.213409 196.371338,153.005066 197.709335,152.102158 
	C198.478745,151.785248 198.866882,151.911606 199.065857,152.656296 
	C198.937225,153.433289 198.905014,153.876801 198.919800,154.650879 
	C198.609680,155.438324 198.252594,155.895233 197.928101,156.661346 
	C197.664185,157.130371 197.367691,157.290237 197.020660,157.710251 
z"/>
<path fill="#C854FA" opacity="1.000000" stroke="none" 
	d="
M180.139801,159.416046 
	C180.386749,158.907715 180.722000,158.773117 181.053284,158.343658 
	C181.383621,157.909195 181.717880,157.769623 182.046967,157.335434 
	C182.373352,156.899979 182.704926,156.759125 183.034515,156.325531 
	C184.653473,156.119034 184.883804,154.891586 185.116669,153.393494 
	C185.205368,153.124954 185.373947,153.204941 185.807632,153.195099 
	C186.406036,152.542465 187.010330,152.537582 187.748184,152.189941 
	C188.125031,151.973694 188.299042,151.957581 188.731201,151.987030 
	C189.127594,152.186615 189.265839,152.340652 189.269852,152.774658 
	C187.288116,156.519150 185.556061,160.077133 181.520233,162.116943 
	C180.911209,162.268372 180.640121,162.346466 180.001205,162.215317 
	C179.831635,161.267319 180.029861,160.528549 180.139801,159.416046 
z"/>
<path fill="#DC91FC" opacity="1.000000" stroke="none" 
	d="
M179.345367,162.140259 
	C179.891998,162.030746 180.150620,162.055405 180.795776,162.135193 
	C181.109924,162.924606 181.037552,163.658936 181.002838,164.761841 
	C181.040497,165.130417 181.011902,165.058060 181.050262,165.051697 
	C180.579941,165.398193 179.963882,165.469971 179.205658,165.916779 
	C179.007294,166.144638 179.023911,166.026108 179.082245,166.039520 
	C177.189758,167.137589 175.696106,168.955399 173.167801,169.748535 
	C172.066681,169.783295 171.263321,169.660965 170.293533,169.276169 
	C171.124756,168.524628 171.806549,167.776932 172.044159,166.349701 
	C172.325974,165.866318 172.611160,165.701508 172.963974,165.290451 
	C175.671997,165.495514 177.043121,163.185455 179.345367,162.140259 
z"/>
<path fill="#E0B5FC" opacity="1.000000" stroke="none" 
	d="
M189.468048,152.972961 
	C189.092026,152.886948 189.048447,152.719315 188.997116,152.292145 
	C188.909119,149.756516 189.553314,147.789368 191.547134,146.505859 
	C191.759201,146.369339 192.701706,146.808746 192.704529,146.990295 
	C192.742310,149.429138 191.681396,151.372574 189.468048,152.972961 
z"/>
<path fill="#000000" opacity="1.000000" stroke="none" 
	d="
M197.766983,146.666397 
	C198.023834,149.839188 194.732224,150.716263 194.071823,153.611816 
	C193.181900,153.938995 191.647354,153.822189 192.164871,153.155182 
	C193.921524,150.891129 194.100464,147.341614 197.766983,146.666397 
z"/>
<path fill="#E0B5FC" opacity="1.000000" stroke="none" 
	d="
M187.654785,152.008820 
	C187.523026,152.337463 187.095032,152.685104 186.369873,153.069000 
	C186.501328,152.746140 186.929932,152.386993 187.654785,152.008820 
z"/>
<path fill="#D280FD" opacity="1.000000" stroke="none" 
	d="
M299.057312,108.019287 
	C297.887573,107.430244 295.090363,108.845642 295.487640,106.874855 
	C296.109589,103.789520 299.011322,102.473030 302.450104,102.194206 
	C302.725647,105.164169 299.114227,105.099434 299.029053,107.723923 
	C299.048035,108.076706 299.021332,108.001373 299.057312,108.019287 
z"/>
<path fill="#DC91FC" opacity="1.000000" stroke="none" 
	d="
M166.626495,175.071594 
	C169.142792,177.221924 170.745056,175.509506 172.712799,174.069550 
	C172.584961,177.535599 168.895355,179.575897 165.952652,177.684082 
	C164.621719,176.828430 164.876343,175.829041 166.626495,175.071594 
z"/>
<path fill="#000000" opacity="1.000000" stroke="none" 
	d="
M174.397491,171.983398 
	C174.052292,171.537766 174.022552,171.110016 174.049530,170.364441 
	C174.502472,169.052719 175.140411,168.405685 176.613266,168.714600 
	C177.032806,169.058212 177.144104,169.201782 177.403717,169.573944 
	C176.699448,170.656555 176.182343,171.943726 174.397491,171.983398 
z"/>
<path fill="#E1C7FA" opacity="1.000000" stroke="none" 
	d="
M199.267776,152.848145 
	C198.852066,152.678818 198.664581,152.418350 198.202423,152.076050 
	C198.698761,151.041061 198.920349,148.896469 200.333023,149.684006 
	C201.736221,150.466217 200.564606,151.844727 199.267776,152.848145 
z"/>
<path fill="#C854FA" opacity="1.000000" stroke="none" 
	d="
M175.852341,310.858643 
	C172.290894,309.078156 175.054718,307.860718 176.060684,306.628021 
	C176.667511,305.884460 178.140457,305.508026 178.489594,306.590912 
	C179.101608,308.489227 177.974625,309.921875 175.852341,310.858643 
z"/>
<path fill="#F3E4F9" opacity="1.000000" stroke="none" 
	d="
M177.061066,168.596893 
	C176.092117,169.004196 175.200150,168.943420 174.405853,169.941864 
	C173.899963,170.028671 173.693695,170.010712 173.178741,169.949188 
	C174.182144,167.836502 176.148819,166.700592 178.783585,166.030594 
	C179.246063,167.450424 178.537552,168.138580 177.061066,168.596893 
z"/>
<path fill="#C740FD" opacity="1.000000" stroke="none" 
	d="
M298.145874,122.536499 
	C298.564240,122.125168 298.831909,121.946373 299.106018,121.422089 
	C299.534363,121.147865 299.817535,120.991806 300.175293,120.518158 
	C300.566406,120.097679 300.820801,119.882072 301.133057,119.423332 
	C301.515503,119.138695 301.783783,118.993309 302.144226,118.567146 
	C305.991638,117.034012 309.643219,115.523338 313.404633,114.370926 
	C316.359894,113.465485 318.330872,114.386185 317.913818,118.362968 
	C317.523834,119.521133 317.135010,120.300980 316.708496,121.397598 
	C314.152191,124.232384 311.633545,126.750389 309.025269,129.589905 
	C304.440857,130.420822 300.670044,134.816986 295.279053,132.201569 
	C294.123138,128.331863 296.581726,125.774445 298.145874,122.536499 
z"/>
<path fill="#FAF9FB" opacity="1.000000" stroke="none" 
	d="
M355.547607,173.761658 
	C355.825226,180.603195 350.316833,183.842926 344.127045,180.429260 
	C343.715790,179.642105 343.732300,179.204529 344.184570,178.489319 
	C346.785248,176.386475 348.458649,173.703079 351.677917,172.403748 
	C353.247650,172.366867 354.351410,172.719208 355.547607,173.761658 
z"/>
<path fill="#EBE0F4" opacity="1.000000" stroke="none" 
	d="
M355.882446,173.654755 
	C354.736023,173.762527 353.675079,173.513016 352.308899,173.131393 
	C349.074219,171.632034 348.576538,175.980438 345.480164,175.232880 
	C347.631195,168.625885 352.924103,166.901779 355.882446,173.654755 
z"/>
<path fill="#D280FD" opacity="1.000000" stroke="none" 
	d="
M321.263245,156.639359 
	C322.332123,156.972366 324.332581,156.108612 323.922913,158.929871 
	C323.965576,159.291641 324.029022,159.583008 323.949463,159.709106 
	C323.361237,160.657837 323.554321,161.608429 323.210266,162.786972 
	C323.035248,163.080948 323.011597,163.009247 323.048096,162.999542 
	C322.571320,163.392136 322.495300,164.000137 322.187988,164.829315 
	C322.035309,165.087494 322.012085,165.014877 322.047058,165.030060 
	C319.306122,166.080765 319.120178,164.163330 319.153442,162.320129 
	C319.185883,160.522308 320.247406,159.018845 321.130798,157.027100 
	C321.240662,156.603989 321.293152,156.664215 321.263245,156.639359 
z"/>
<path fill="#F3E4F9" opacity="1.000000" stroke="none" 
	d="
M320.938934,156.755341 
	C322.548767,158.213287 320.848969,159.186264 320.461639,160.452667 
	C319.978516,162.032394 318.853516,163.823959 321.701050,164.954132 
	C318.120117,166.461945 317.471466,166.177963 318.092041,162.794266 
	C318.471558,160.724838 318.581207,158.336884 320.938934,156.755341 
z"/>
<path fill="#EBE0F4" opacity="1.000000" stroke="none" 
	d="
M345.241638,178.583344 
	C344.752777,179.166595 344.476868,179.385803 344.079651,179.843536 
	C338.980865,178.124619 343.679749,176.805603 344.599915,175.072678 
	C344.920380,174.929214 344.995636,174.996704 345.033081,175.030670 
	C345.874847,176.033859 345.938416,177.093246 345.241638,178.583344 
z"/>
<path fill="#F3E4F9" opacity="1.000000" stroke="none" 
	d="
M323.369019,162.924271 
	C323.137329,162.161789 323.239410,161.242645 323.605713,160.079346 
	C323.814178,160.812668 323.758484,161.790131 323.369019,162.924271 
z"/>
<path fill="#F3E4F9" opacity="1.000000" stroke="none" 
	d="
M322.338318,164.969879 
	C322.192932,164.484985 322.350586,163.882477 322.796417,163.134888 
	C322.936829,163.610641 322.789093,164.231461 322.338318,164.969879 
z"/>
<path fill="#C854FA" opacity="1.000000" stroke="none" 
	d="
M342.857239,307.792877 
	C342.990906,311.481232 340.607727,312.557587 337.789185,312.954498 
	C336.175537,313.181763 334.505432,313.008240 332.427490,313.091614 
	C330.937836,312.512848 329.744324,312.472076 328.244659,312.227905 
	C327.931763,312.054749 327.996307,312.005493 327.977356,312.041382 
	C327.793518,311.788666 327.583801,311.537476 327.128906,311.180176 
	C326.928589,311.036652 326.993347,311.001068 326.973511,311.032227 
	C326.120453,307.879913 326.222900,304.755646 327.752289,301.324219 
	C327.959564,300.939972 327.998383,300.999451 327.971375,300.976318 
	C328.624878,300.465698 329.424805,300.506378 330.576477,300.544434 
	C331.352753,300.970398 331.655731,301.368469 331.963074,302.192566 
	C332.133209,302.857330 332.183502,303.176300 332.205414,303.497986 
	C332.672577,310.356873 333.560150,310.826233 340.072754,307.357697 
	C341.170776,307.105957 341.897064,307.184418 342.857239,307.792877 
z"/>
<path fill="#E7CDF3" opacity="1.000000" stroke="none" 
	d="
M331.160950,301.330750 
	C330.125763,301.177246 329.380981,301.206482 328.290283,301.094421 
	C328.839478,300.332825 329.733429,299.182312 330.629913,299.180298 
	C335.563568,299.169220 340.431854,298.619110 345.310089,297.998932 
	C347.783020,297.684540 348.688660,298.615784 347.446411,301.127625 
	C346.396362,303.250977 345.626740,305.513031 344.365173,307.763092 
	C343.838104,307.639404 343.678864,307.466309 343.340637,306.990112 
	C342.444061,305.121552 343.287476,303.472870 342.910889,301.688263 
	C339.088348,301.742462 335.217072,303.235229 331.160950,301.330750 
z"/>
<path fill="#E7CDF3" opacity="1.000000" stroke="none" 
	d="
M327.590576,301.096252 
	C328.011566,304.054413 325.969299,306.985840 327.052002,310.631165 
	C325.537537,307.751984 325.174316,304.469360 327.590576,301.096252 
z"/>
<path fill="#E1C7FA" opacity="1.000000" stroke="none" 
	d="
M343.762543,306.694763 
	C343.962952,306.940033 343.983276,307.376160 343.990295,307.594330 
	C343.997314,307.812500 343.573059,307.978821 343.349060,308.020386 
	C342.357513,308.045929 341.589966,308.029846 340.440277,308.057190 
	C339.623230,308.009003 339.258942,307.793457 338.809509,307.180634 
	C338.561462,305.703552 339.245636,304.841797 340.080109,303.708191 
	C340.457733,303.324951 340.625580,303.189087 341.098511,302.945618 
	C343.332794,303.318817 342.771393,305.288239 343.762543,306.694763 
z"/>
<path fill="#E7CDF3" opacity="1.000000" stroke="none" 
	d="
M328.036713,312.363434 
	C329.222778,311.634796 330.412903,311.944702 331.777771,312.862213 
	C330.595367,313.893524 329.450897,312.642944 328.036713,312.363434 
z"/>
<path fill="#E7CDF3" opacity="1.000000" stroke="none" 
	d="
M326.974915,311.310242 
	C327.293243,311.169983 327.657928,311.303345 327.990509,311.756958 
	C327.646057,311.912781 327.333649,311.748322 326.974915,311.310242 
z"/>
<path fill="#F3E4F9" opacity="1.000000" stroke="none" 
	d="
M179.325241,166.077972 
	C179.480881,165.754379 179.954483,165.364136 180.758362,165.009613 
	C180.897049,165.801605 180.338745,166.009140 179.325241,166.077972 
z"/>
<path fill="#E1C7FA" opacity="1.000000" stroke="none" 
	d="
M345.324371,178.813904 
	C345.034729,177.912582 345.040741,176.877762 345.058624,175.453796 
	C346.960449,174.949020 347.958282,173.620544 348.950592,172.252304 
	C349.942993,170.883957 350.960114,170.469482 351.948761,172.663345 
	C349.875793,174.892990 347.747925,176.786697 345.324371,178.813904 
z"/>
<path fill="#E7CDF3" opacity="1.000000" stroke="none" 
	d="
M338.521667,306.805115 
	C339.161011,307.129272 339.470215,307.357666 339.918762,307.843323 
	C338.412567,310.141052 336.315979,311.683167 333.717346,310.624084 
	C330.828400,309.446716 330.558899,306.702667 331.052612,303.504700 
	C332.747528,301.017761 335.066772,301.607574 337.569733,301.514465 
	C338.671936,301.502228 339.333160,301.788239 340.489502,302.562836 
	C340.977081,303.235077 340.972076,303.409363 340.956360,303.844910 
	C339.126801,305.575043 336.549683,304.724152 334.516815,305.912262 
	C335.651581,307.694916 337.029358,306.540192 338.521667,306.805115 
z"/>
<path fill="#DC91FC" opacity="1.000000" stroke="none" 
	d="
M339.238281,302.217896 
	C336.591644,301.987000 334.155212,301.790161 331.504364,303.018311 
	C331.065948,302.663666 331.008789,302.229401 330.911072,301.471619 
	C335.747833,300.869263 340.712708,301.441223 346.115631,298.769501 
	C344.931122,301.814575 343.504761,303.772919 343.970520,306.548218 
	C342.134094,306.478455 342.210999,304.678192 341.240479,303.246460 
	C340.982056,303.060760 340.971497,303.024933 340.953918,303.023743 
	C340.574463,302.513428 339.996368,302.500000 339.238281,302.217896 
z"/>
<path fill="#000000" opacity="1.000000" stroke="none" 
	d="
M338.956482,306.620544 
	C337.728149,307.505249 336.498169,308.732147 335.506775,308.562744 
	C334.143585,308.329742 332.202972,307.915283 332.026794,305.821259 
	C331.803223,303.163910 333.850037,304.119232 335.098297,304.024353 
	C336.741852,303.899384 338.402679,304.002075 340.500854,304.056519 
	C340.317474,304.850891 339.689301,305.595551 338.956482,306.620544 
z"/>
<path fill="#E1C7FA" opacity="1.000000" stroke="none" 
	d="
M339.178436,302.284973 
	C339.552521,302.213043 340.092926,302.370941 340.784851,302.775696 
	C340.405853,302.853302 339.875305,302.684052 339.178436,302.284973 
z"/>
</svg>